<svg width="32" height="32" viewBox="0 0 30 24" fill="#ffffff" xmlns="http://www.w3.org/2000/svg">
<path d="M9.66666 2.66666H1.66666M5.66666 21.3333H1.66666M3 12H1.66666M19.52 2.94666L21.4 6.70666C21.6533 7.22666 22.3333 7.71999 22.9067 7.82666L26.3067 8.38666C28.48 8.74666 28.9867 10.32 27.4267 11.8933L24.7733 14.5467C24.3333 14.9867 24.08 15.8533 24.2267 16.48L24.9867 19.76C25.5867 22.3467 24.2 23.36 21.92 22L18.7333 20.1067C18.16 19.76 17.2 19.76 16.6267 20.1067L13.44 22C11.16 23.3467 9.77333 22.3467 10.3733 19.76L11.1333 16.48C11.28 15.8667 11.0267 15 10.5867 14.5467L7.93333 11.8933C6.37333 10.3333 6.88 8.75999 9.05333 8.38666L12.4533 7.82666C13.0267 7.73332 13.7067 7.22666 13.96 6.70666L15.84 2.94666C16.84 0.906657 18.4933 0.906657 19.52 2.94666Z" stroke="currentColor" stroke-width="1.2" stroke-linecap="round" stroke-linejoin="round"/>
</svg>
