<svg width="144" height="144" viewBox="0 0 144 144" fill="none" xmlns="http://www.w3.org/2000/svg">
<rect width="144" height="144" rx="10" fill="#656565"/>
<g filter="url(#filter0_d_5_56)">
<path d="M72.9601 65.22C72.3601 65.16 71.6401 65.16 70.9801 65.22C64.0933 64.9862 57.5679 62.081 52.7858 57.1198C48.0038 52.1585 45.3405 45.5307 45.3601 38.64C45.3601 23.94 57.2401 12 72.0001 12C75.4945 11.937 78.9672 12.5628 82.2198 13.8419C85.4724 15.1209 88.4412 17.0281 90.9568 19.4545C93.4723 21.8809 95.4853 24.779 96.8808 27.9833C98.2763 31.1877 99.027 34.6355 99.0901 38.13C99.1531 41.6245 98.5272 45.0971 97.2482 48.3497C95.9692 51.6023 94.062 54.5712 91.6356 57.0867C89.2092 59.6022 86.3111 61.6152 83.1067 63.0107C79.9024 64.4063 76.4545 65.157 72.9601 65.22ZM42.9601 87.36C28.4401 97.08 28.4401 112.92 42.9601 122.58C59.4601 133.62 86.5201 133.62 103.02 122.58C117.54 112.86 117.54 97.02 103.02 87.36C86.5801 76.38 59.5201 76.38 42.9601 87.36Z" fill="#373737"/>
<path d="M45.3601 38.64C45.3405 45.5307 48.0038 52.1585 52.7858 57.1198C57.5679 62.081 64.0933 64.9862 70.9801 65.22C71.6401 65.16 72.3601 65.16 72.9601 65.22L45.3601 38.64ZM45.3601 38.64C45.3601 23.94 57.2401 12 72.0001 12L45.3601 38.64ZM72.9894 64.4693C72.3623 64.41 71.6334 64.4106 70.9599 64.4688C64.2847 64.2304 57.9621 61.4093 53.3258 56.5993C48.679 51.7783 46.0911 45.338 46.1101 38.6421V38.64C46.1101 24.3531 57.6554 12.75 72.0001 12.75V12.7501L72.0136 12.7499C75.4096 12.6886 78.7844 13.2968 81.9454 14.5398C85.1063 15.7828 87.9914 17.6363 90.4361 19.9943C92.8807 22.3523 94.837 25.1687 96.1932 28.2828C97.5494 31.3968 98.2789 34.7475 98.3402 38.1435C98.4015 41.5395 97.7932 44.9143 96.5502 48.0753C95.3072 51.2362 93.4538 54.1214 91.0958 56.566C88.7378 59.0107 85.9213 60.9669 82.8073 62.3231C79.7063 63.6736 76.3707 64.4027 72.9894 64.4693ZM102.604 87.9837L102.605 87.9844C109.708 92.7103 113.16 98.873 113.16 104.947C113.16 111.022 109.708 117.201 102.603 121.957C94.5021 127.377 83.7659 130.11 72.9901 130.11C62.2142 130.11 51.4779 127.377 43.3771 121.957L43.3755 121.956C36.2721 117.23 32.8201 111.067 32.8201 104.993C32.8201 98.918 36.2721 92.7402 43.3756 87.9844C51.5071 82.5933 62.259 79.875 73.0351 79.875C83.8119 79.875 94.5331 82.5936 102.604 87.9837Z" stroke="#373737" stroke-width="1.5" stroke-linecap="round" stroke-linejoin="round"/>
</g>
<defs>
<filter id="filter0_d_5_56" x="28.0701" y="11.9957" width="89.8401" height="126.864" filterUnits="userSpaceOnUse" color-interpolation-filters="sRGB">
<feFlood flood-opacity="0" result="BackgroundImageFix"/>
<feColorMatrix in="SourceAlpha" type="matrix" values="0 0 0 0 0 0 0 0 0 0 0 0 0 0 0 0 0 0 127 0" result="hardAlpha"/>
<feOffset dy="4"/>
<feGaussianBlur stdDeviation="2"/>
<feComposite in2="hardAlpha" operator="out"/>
<feColorMatrix type="matrix" values="0 0 0 0 0 0 0 0 0 0 0 0 0 0 0 0 0 0 0.25 0"/>
<feBlend mode="normal" in2="BackgroundImageFix" result="effect1_dropShadow_5_56"/>
<feBlend mode="normal" in="SourceGraphic" in2="effect1_dropShadow_5_56" result="shape"/>
</filter>
</defs>
</svg>
